STARTFONT 2.1
COMMENT
COMMENT Converted from OpenType font "Q:\font stuff\winfont\Quarx Outline.ttf" by "otf2bdf 3.0".
COMMENT
FONT -FreeType-Quarx Outline-Medium-R-Normal--26-260-72-72-P-133-ISO10646-1
SIZE 26 72 72
FONTBOUNDINGBOX 26 26 0 -4
STARTPROPERTIES 19
FOUNDRY "FreeType"
FAMILY_NAME "Quarx Outline"
WEIGHT_NAME "Medium"
SLANT "R"
SETWIDTH_NAME "Normal"
ADD_STYLE_NAME ""
PIXEL_SIZE 22
POINT_SIZE 260
RESOLUTION_X 72
RESOLUTION_Y 72
SPACING "P"
AVERAGE_WIDTH 133
CHARSET_REGISTRY "ISO10646"
CHARSET_ENCODING "1"
FONT_ASCENT 22
FONT_DESCENT 4
COPYRIGHT "Copyright by dustBUST Fonts 2001."
_OTF_FONTFILE "Q:\font stuff\winfont\Quarx Outline.ttf"
_OTF_PSNAME "QuarxOutline"
ENDPROPERTIES
CHARS 193
STARTCHAR 0020
ENCODING 32
SWIDTH 538 0
DWIDTH 14 0
BBX 0 0 0 0
BITMAP
ENDCHAR
STARTCHAR 0021
ENCODING 33
SWIDTH 307 0
DWIDTH 8 0
BBX 4 16 2 0
BITMAP
70
D0
90
90
90
90
90
90
B0
E0
00
00
F0
90
90
F0
ENDCHAR
STARTCHAR 0022
ENCODING 34
SWIDTH 538 0
DWIDTH 14 0
BBX 10 6 2 10
BITMAP
F3C0
9240
9240
9240
B2C0
E380
ENDCHAR
STARTCHAR 0023
ENCODING 35
SWIDTH 538 0
DWIDTH 14 0
BBX 0 0 0 0
BITMAP
ENDCHAR
STARTCHAR 0024
ENCODING 36
SWIDTH 961 0
DWIDTH 25 0
BBX 20 24 1 -4
BITMAP
007000
00D000
009000
009000
7F9FE0
C00030
800010
9F9FF0
909000
909000
9F9FE0
800030
C00010
7F9F90
009090
009090
FF9F90
800010
C00030
7F9FE0
009000
009000
00B000
00E000
ENDCHAR
STARTCHAR 0025
ENCODING 37
SWIDTH 538 0
DWIDTH 14 0
BBX 0 0 0 0
BITMAP
ENDCHAR
STARTCHAR 0026
ENCODING 38
SWIDTH 923 0
DWIDTH 24 0
BBX 20 16 2 0
BITMAP
7FFE00
C00300
800100
9FF900
900900
900900
9079F0
90C010
908030
90F9E0
900900
900900
9FF9E0
800030
C00010
7FFFF0
ENDCHAR
STARTCHAR 0027
ENCODING 39
SWIDTH 307 0
DWIDTH 8 0
BBX 4 6 2 10
BITMAP
F0
90
90
90
B0
E0
ENDCHAR
STARTCHAR 0028
ENCODING 40
SWIDTH 461 0
DWIDTH 12 0
BBX 8 24 2 -4
BITMAP
7F
C1
83
9E
90
90
90
90
90
90
90
90
90
90
90
90
90
90
90
90
9E
83
C1
7F
ENDCHAR
STARTCHAR 0029
ENCODING 41
SWIDTH 461 0
DWIDTH 12 0
BBX 8 24 2 -4
BITMAP
FE
83
C1
79
09
09
09
09
09
09
09
09
09
09
09
09
09
09
09
09
79
C1
83
FE
ENDCHAR
STARTCHAR 002A
ENCODING 42
SWIDTH 538 0
DWIDTH 14 0
BBX 0 0 0 0
BITMAP
ENDCHAR
STARTCHAR 002B
ENCODING 43
SWIDTH 538 0
DWIDTH 14 0
BBX 0 0 0 0
BITMAP
ENDCHAR
STARTCHAR 002C
ENCODING 44
SWIDTH 307 0
DWIDTH 8 0
BBX 4 6 2 -2
BITMAP
F0
90
90
90
B0
E0
ENDCHAR
STARTCHAR 002D
ENCODING 45
SWIDTH 769 0
DWIDTH 20 0
BBX 16 4 2 6
BITMAP
7FFF
C001
8003
FFFE
ENDCHAR
STARTCHAR 002E
ENCODING 46
SWIDTH 307 0
DWIDTH 8 0
BBX 4 4 2 0
BITMAP
F0
90
90
F0
ENDCHAR
STARTCHAR 002F
ENCODING 47
SWIDTH 538 0
DWIDTH 14 0
BBX 8 16 3 0
BITMAP
07
0D
09
09
13
12
32
24
24
6C
48
48
D0
90
90
60
ENDCHAR
STARTCHAR 0030
ENCODING 48
SWIDTH 923 0
DWIDTH 24 0
BBX 20 16 2 0
BITMAP
7FFFE0
C00030
800010
9FFF90
900090
900090
900090
900090
900090
900090
900090
900090
9FFF90
800010
C00030
7FFFE0
ENDCHAR
STARTCHAR 0031
ENCODING 49
SWIDTH 307 0
DWIDTH 8 0
BBX 4 16 2 0
BITMAP
70
D0
90
90
90
90
90
90
90
90
90
90
90
90
B0
E0
ENDCHAR
STARTCHAR 0032
ENCODING 50
SWIDTH 923 0
DWIDTH 24 0
BBX 20 16 2 0
BITMAP
FFFFE0
800030
C00010
7FFF90
000090
000090
7FFF90
C00010
800030
9FFFE0
900000
900000
9FFFE0
800030
C00010
7FFFF0
ENDCHAR
STARTCHAR 0033
ENCODING 51
SWIDTH 923 0
DWIDTH 24 0
BBX 20 16 2 0
BITMAP
7FFFE0
C00030
800010
FFFF90
000090
000090
FFFF90
800010
C00010
7FFF90
000090
000090
FFFF90
800010
C00030
7FFFE0
ENDCHAR
STARTCHAR 0034
ENCODING 52
SWIDTH 923 0
DWIDTH 24 0
BBX 20 16 2 0
BITMAP
E00070
B000D0
900090
900090
900090
900090
900090
900090
9FFF90
800010
C00010
7FFF90
000090
000090
0000D0
000070
ENDCHAR
STARTCHAR 0035
ENCODING 53
SWIDTH 923 0
DWIDTH 24 0
BBX 20 16 2 0
BITMAP
7FFFE0
C00030
800010
9FFFF0
900000
900000
9FFFE0
800030
C00010
7FFF90
000090
000090
FFFF90
800010
C00030
7FFFE0
ENDCHAR
STARTCHAR 0036
ENCODING 54
SWIDTH 923 0
DWIDTH 24 0
BBX 20 16 2 0
BITMAP
7FFFF0
C00010
800030
9FFFE0
900000
900000
9FFFE0
800030
800010
9FFF90
900090
900090
9FFF90
800010
C00030
7FFFE0
ENDCHAR
STARTCHAR 0037
ENCODING 55
SWIDTH 538 0
DWIDTH 14 0
BBX 10 16 2 0
BITMAP
7F80
C0C0
8040
FE40
0240
0240
0240
0240
0240
0240
0240
0240
0240
0240
0340
01C0
ENDCHAR
STARTCHAR 0038
ENCODING 56
SWIDTH 923 0
DWIDTH 24 0
BBX 20 16 2 0
BITMAP
7FFFE0
C00030
800010
9FFF90
900090
900090
9FFF90
800010
800010
9FFF90
900090
900090
9FFF90
800010
C00030
7FFFE0
ENDCHAR
STARTCHAR 0039
ENCODING 57
SWIDTH 923 0
DWIDTH 24 0
BBX 20 16 2 0
BITMAP
7FFFE0
C00030
800010
9FFF90
900090
900090
9FFF90
800010
C00010
7FFF90
000090
000090
7FFF90
C00010
800030
FFFFE0
ENDCHAR
STARTCHAR 003A
ENCODING 58
SWIDTH 307 0
DWIDTH 8 0
BBX 4 10 2 0
BITMAP
F0
90
90
F0
00
00
F0
90
90
F0
ENDCHAR
STARTCHAR 003B
ENCODING 59
SWIDTH 307 0
DWIDTH 8 0
BBX 4 12 2 -2
BITMAP
F0
90
90
F0
00
00
F0
90
90
90
B0
E0
ENDCHAR
STARTCHAR 003C
ENCODING 60
SWIDTH 538 0
DWIDTH 14 0
BBX 0 0 0 0
BITMAP
ENDCHAR
STARTCHAR 003D
ENCODING 61
SWIDTH 769 0
DWIDTH 20 0
BBX 16 12 2 2
BITMAP
7FFF
C001
8003
FFFE
0000
0000
0000
0000
FFFE
8003
C001
7FFF
ENDCHAR
STARTCHAR 003E
ENCODING 62
SWIDTH 538 0
DWIDTH 14 0
BBX 0 0 0 0
BITMAP
ENDCHAR
STARTCHAR 003F
ENCODING 63
SWIDTH 923 0
DWIDTH 24 0
BBX 20 16 2 0
BITMAP
FFFFE0
800030
C00010
7FFF90
000090
000090
07FF90
0C0010
080030
0FFFE0
000000
000000
0F0000
090000
090000
0F0000
ENDCHAR
STARTCHAR 0040
ENCODING 64
SWIDTH 538 0
DWIDTH 14 0
BBX 0 0 0 0
BITMAP
ENDCHAR
STARTCHAR 0041
ENCODING 65
SWIDTH 923 0
DWIDTH 24 0
BBX 20 16 2 0
BITMAP
7FFFE0
C00030
800010
9FFF90
900090
900090
900090
900090
9FFF90
800010
800010
9FFF90
900090
900090
B000D0
E00070
ENDCHAR
STARTCHAR 0042
ENCODING 66
SWIDTH 923 0
DWIDTH 24 0
BBX 20 20 2 0
BITMAP
E00000
B00000
900000
900000
9FFFE0
800030
800010
9FFF90
900090
900090
900090
900090
900090
900090
900090
900090
9FFF90
800010
C00030
7FFFE0
ENDCHAR
STARTCHAR 0043
ENCODING 67
SWIDTH 923 0
DWIDTH 24 0
BBX 20 16 2 0
BITMAP
7FFFE0
C00030
800010
9FFFF0
900000
900000
900000
900000
900000
900000
900000
900000
9FFFF0
800010
C00030
7FFFE0
ENDCHAR
STARTCHAR 0044
ENCODING 68
SWIDTH 923 0
DWIDTH 24 0
BBX 20 20 2 0
BITMAP
000070
0000D0
000090
000090
7FFF90
C00010
800010
9FFF90
900090
900090
900090
900090
900090
900090
900090
900090
9FFF90
800010
C00030
7FFFE0
ENDCHAR
STARTCHAR 0045
ENCODING 69
SWIDTH 923 0
DWIDTH 24 0
BBX 20 16 2 0
BITMAP
7FFFE0
C00030
800010
9FFFF0
900000
900000
9FFFF0
800010
800030
9FFFE0
900000
900000
9FFFF0
800010
C00030
7FFFE0
ENDCHAR
STARTCHAR 0046
ENCODING 70
SWIDTH 923 0
DWIDTH 24 0
BBX 20 20 2 -4
BITMAP
7FFFE0
C00030
800010
9FFFF0
900000
900000
900000
900000
900000
900000
900000
900000
9FFFF0
800010
800030
9FFFE0
900000
900000
B00000
E00000
ENDCHAR
STARTCHAR 0047
ENCODING 71
SWIDTH 923 0
DWIDTH 24 0
BBX 20 20 2 -4
BITMAP
7FFFE0
C00030
800010
9FFF90
900090
900090
900090
900090
900090
900090
900090
900090
9FFF90
800010
C00010
7FFF90
000090
000090
0000D0
000070
ENDCHAR
STARTCHAR 0048
ENCODING 72
SWIDTH 923 0
DWIDTH 24 0
BBX 20 20 2 0
BITMAP
E00000
B00000
900000
900000
9FFFE0
800030
800010
9FFF90
900090
900090
900090
900090
900090
900090
900090
900090
900090
900090
B000D0
E00070
ENDCHAR
STARTCHAR 0049
ENCODING 73
SWIDTH 307 0
DWIDTH 8 0
BBX 4 16 2 0
BITMAP
E0
B0
90
90
90
90
90
90
90
90
90
90
90
90
D0
70
ENDCHAR
STARTCHAR 004A
ENCODING 74
SWIDTH 538 0
DWIDTH 14 0
BBX 10 16 2 0
BITMAP
01C0
0340
0240
0240
0240
0240
0240
0240
0240
0240
0240
0240
FE40
8040
C0C0
7F80
ENDCHAR
STARTCHAR 004B
ENCODING 75
SWIDTH 923 0
DWIDTH 24 0
BBX 20 20 2 0
BITMAP
E00000
B00000
900000
900000
9FFFF0
800010
800030
9FFFE0
900000
900000
9FFFE0
800030
800010
9FFF90
900090
900090
900090
900090
B000D0
E00070
ENDCHAR
STARTCHAR 004C
ENCODING 76
SWIDTH 538 0
DWIDTH 14 0
BBX 10 20 2 0
BITMAP
E000
B000
9000
9000
9000
9000
9000
9000
9000
9000
9000
9000
9000
9000
9000
9000
9FC0
8040
C0C0
7F80
ENDCHAR
STARTCHAR 004D
ENCODING 77
SWIDTH 1076 0
DWIDTH 28 0
BBX 24 16 2 0
BITMAP
7FFFFE
C00003
800001
9FE7F9
902409
902409
902409
902409
902409
902409
902409
902409
902409
902409
B02C0D
E03807
ENDCHAR
STARTCHAR 004E
ENCODING 78
SWIDTH 923 0
DWIDTH 24 0
BBX 20 16 2 0
BITMAP
7FFFE0
C00030
800010
9FFF90
900090
900090
900090
900090
900090
900090
900090
900090
900090
900090
B000D0
E00070
ENDCHAR
STARTCHAR 004F
ENCODING 79
SWIDTH 923 0
DWIDTH 24 0
BBX 20 16 2 0
BITMAP
7FFFE0
C00030
800010
9FFF90
900090
900090
900090
900090
900090
900090
900090
900090
9FFF90
800010
C00030
7FFFE0
ENDCHAR
STARTCHAR 0050
ENCODING 80
SWIDTH 923 0
DWIDTH 24 0
BBX 20 20 2 -4
BITMAP
7FFFE0
C00030
800010
9FFF90
900090
900090
900090
900090
900090
900090
900090
900090
9FFF90
800010
800030
9FFFE0
900000
900000
B00000
E00000
ENDCHAR
STARTCHAR 0051
ENCODING 81
SWIDTH 923 0
DWIDTH 24 0
BBX 20 20 2 -4
BITMAP
7FFFE0
C00030
800010
9FFF90
900090
900090
900090
900090
907090
90D090
909090
909090
9F9F90
800010
C00030
7F9FE0
009000
009000
00B000
00E000
ENDCHAR
STARTCHAR 0052
ENCODING 82
SWIDTH 923 0
DWIDTH 24 0
BBX 20 20 2 -4
BITMAP
7FFFE0
C00030
800010
9FFF90
900090
900090
900090
900090
9FFF90
800010
800030
9FF9E0
900900
900900
B00900
E00900
0009E0
000830
000C10
0007F0
ENDCHAR
STARTCHAR 0053
ENCODING 83
SWIDTH 923 0
DWIDTH 24 0
BBX 20 16 2 0
BITMAP
7FFFE0
C00030
800010
9FFFF0
900000
900000
9FFFE0
800030
C00010
7FFF90
000090
000090
FFFF90
800010
C00030
7FFFE0
ENDCHAR
STARTCHAR 0054
ENCODING 84
SWIDTH 923 0
DWIDTH 24 0
BBX 20 16 2 0
BITMAP
7FFFF0
C00010
800030
FF9FE0
009000
009000
009000
009000
009000
009000
009000
009000
009000
009000
00B000
00E000
ENDCHAR
STARTCHAR 0055
ENCODING 85
SWIDTH 923 0
DWIDTH 24 0
BBX 20 16 2 0
BITMAP
E00070
B000D0
900090
900090
900090
900090
900090
900090
900090
900090
900090
900090
9FFF90
800010
C00030
7FFFE0
ENDCHAR
STARTCHAR 0056
ENCODING 86
SWIDTH 923 0
DWIDTH 24 0
BBX 20 16 2 0
BITMAP
FE07F0
830C10
C10830
7909E0
090900
090900
090900
090900
090900
090900
090900
090900
09F900
080100
0C0300
07FE00
ENDCHAR
STARTCHAR 0057
ENCODING 87
SWIDTH 1076 0
DWIDTH 28 0
BBX 24 16 2 0
BITMAP
E03807
B02C0D
902409
902409
902409
902409
902409
902409
902409
902409
902409
902409
9FE7F9
800001
C00003
7FFFFE
ENDCHAR
STARTCHAR 0058
ENCODING 88
SWIDTH 923 0
DWIDTH 24 0
BBX 20 16 2 0
BITMAP
FE07F0
830C10
C10830
7909E0
090900
090900
090900
090900
79F9E0
C00030
800010
9FFF90
900090
900090
B000D0
E00070
ENDCHAR
STARTCHAR 0059
ENCODING 89
SWIDTH 923 0
DWIDTH 24 0
BBX 20 20 2 -4
BITMAP
E00070
B000D0
900090
900090
900090
900090
900090
900090
900090
900090
900090
900090
9FFF90
800010
C00010
7FFF90
000090
000090
0000D0
000070
ENDCHAR
STARTCHAR 005A
ENCODING 90
SWIDTH 923 0
DWIDTH 24 0
BBX 20 16 2 0
BITMAP
FFFFE0
800030
C00010
7FFF90
000090
000090
7FFF90
C00010
800030
9FFFE0
900000
900000
9FFFE0
800030
C00010
7FFFF0
ENDCHAR
STARTCHAR 005B
ENCODING 91
SWIDTH 461 0
DWIDTH 12 0
BBX 8 24 2 -4
BITMAP
FF
81
83
9E
90
90
90
90
90
90
90
90
90
90
90
90
90
90
90
90
9E
83
81
FF
ENDCHAR
STARTCHAR 005C
ENCODING 92
SWIDTH 538 0
DWIDTH 14 0
BBX 8 16 3 0
BITMAP
E0
90
90
D0
48
48
6C
24
24
32
12
12
09
09
09
07
ENDCHAR
STARTCHAR 005D
ENCODING 93
SWIDTH 461 0
DWIDTH 12 0
BBX 8 24 2 -4
BITMAP
FF
81
C1
79
09
09
09
09
09
09
09
09
09
09
09
09
09
09
09
09
79
C1
81
FF
ENDCHAR
STARTCHAR 005E
ENCODING 94
SWIDTH 538 0
DWIDTH 14 0
BBX 0 0 0 0
BITMAP
ENDCHAR
STARTCHAR 005F
ENCODING 95
SWIDTH 769 0
DWIDTH 20 0
BBX 16 4 2 0
BITMAP
FFFE
8003
C001
7FFF
ENDCHAR
STARTCHAR 0060
ENCODING 96
SWIDTH 307 0
DWIDTH 8 0
BBX 4 6 2 10
BITMAP
F0
90
90
90
D0
70
ENDCHAR
STARTCHAR 0061
ENCODING 97
SWIDTH 923 0
DWIDTH 24 0
BBX 20 16 2 0
BITMAP
7FFFF0
C00010
800010
9FFF90
900090
900090
900090
900090
900090
900090
900090
900090
9FFF90
800010
C00010
7FFFF0
ENDCHAR
STARTCHAR 0062
ENCODING 98
SWIDTH 923 0
DWIDTH 24 0
BBX 20 20 2 0
BITMAP
E00000
B00000
900000
900000
9FFFE0
800030
800010
9FFF90
900090
900090
900090
900090
900090
900090
900090
900090
9FFF90
800010
C00030
7FFFE0
ENDCHAR
STARTCHAR 0063
ENCODING 99
SWIDTH 923 0
DWIDTH 24 0
BBX 20 16 2 0
BITMAP
7FFFE0
C00030
800010
9FFFF0
900000
900000
900000
900000
900000
900000
900000
900000
9FFFF0
800010
C00030
7FFFE0
ENDCHAR
STARTCHAR 0064
ENCODING 100
SWIDTH 923 0
DWIDTH 24 0
BBX 20 20 2 0
BITMAP
000070
0000D0
000090
000090
7FFF90
C00010
800010
9FFF90
900090
900090
900090
900090
900090
900090
900090
900090
9FFF90
800010
C00030
7FFFE0
ENDCHAR
STARTCHAR 0065
ENCODING 101
SWIDTH 923 0
DWIDTH 24 0
BBX 20 16 2 0
BITMAP
7FFFE0
C00030
800010
9FFF90
900090
900090
9FFF90
800010
800010
9FFFF0
900000
900000
9FFFF0
800010
C00030
7FFFE0
ENDCHAR
STARTCHAR 0066
ENCODING 102
SWIDTH 923 0
DWIDTH 24 0
BBX 20 20 2 -4
BITMAP
7FFFE0
C00030
800010
9FFFF0
900000
900000
900000
900000
900000
900000
900000
900000
9FFFF0
800010
800030
9FFFE0
900000
900000
B00000
E00000
ENDCHAR
STARTCHAR 0067
ENCODING 103
SWIDTH 923 0
DWIDTH 24 0
BBX 20 20 2 -4
BITMAP
7FFFE0
C00030
800010
9FFF90
900090
900090
900090
900090
900090
900090
900090
900090
9FFF90
800010
C00010
7FFF90
000090
000090
0000D0
000070
ENDCHAR
STARTCHAR 0068
ENCODING 104
SWIDTH 923 0
DWIDTH 24 0
BBX 20 20 2 0
BITMAP
E00000
B00000
900000
900000
9FFFE0
800030
800010
9FFF90
900090
900090
900090
900090
900090
900090
900090
900090
900090
900090
B000D0
E00070
ENDCHAR
STARTCHAR 0069
ENCODING 105
SWIDTH 307 0
DWIDTH 8 0
BBX 4 16 2 0
BITMAP
F0
90
90
F0
00
00
E0
B0
90
90
90
90
90
90
D0
70
ENDCHAR
STARTCHAR 006A
ENCODING 106
SWIDTH 538 0
DWIDTH 14 0
BBX 10 16 2 0
BITMAP
01C0
0340
0240
0240
0240
0240
0240
0240
0240
0240
0240
0240
FE40
8040
C0C0
7F80
ENDCHAR
STARTCHAR 006B
ENCODING 107
SWIDTH 923 0
DWIDTH 24 0
BBX 20 20 2 0
BITMAP
E00000
B00000
900000
900000
9FFFF0
800010
800030
9FFFE0
900000
900000
9FFFE0
800030
800010
9FFF90
900090
900090
900090
900090
B000D0
E00070
ENDCHAR
STARTCHAR 006C
ENCODING 108
SWIDTH 538 0
DWIDTH 14 0
BBX 10 16 2 0
BITMAP
E000
B000
9000
9000
9000
9000
9000
9000
9000
9000
9000
9000
9FC0
8040
C0C0
7F80
ENDCHAR
STARTCHAR 006D
ENCODING 109
SWIDTH 1076 0
DWIDTH 28 0
BBX 24 16 2 0
BITMAP
7FFFFE
C00003
800001
9FE7F9
902409
902409
902409
902409
902409
902409
902409
902409
902409
902409
B02C0D
E03807
ENDCHAR
STARTCHAR 006E
ENCODING 110
SWIDTH 923 0
DWIDTH 24 0
BBX 20 16 2 0
BITMAP
7FFFE0
C00030
800010
9FFF90
900090
900090
900090
900090
900090
900090
900090
900090
900090
900090
B000D0
E00070
ENDCHAR
STARTCHAR 006F
ENCODING 111
SWIDTH 923 0
DWIDTH 24 0
BBX 20 16 2 0
BITMAP
7FFFE0
C00030
800010
9FFF90
900090
900090
900090
900090
900090
900090
900090
900090
9FFF90
800010
C00030
7FFFE0
ENDCHAR
STARTCHAR 0070
ENCODING 112
SWIDTH 923 0
DWIDTH 24 0
BBX 20 20 2 -4
BITMAP
7FFFE0
C00030
800010
9FFF90
900090
900090
900090
900090
900090
900090
900090
900090
9FFF90
800010
800030
9FFFE0
900000
900000
B00000
E00000
ENDCHAR
STARTCHAR 0071
ENCODING 113
SWIDTH 923 0
DWIDTH 24 0
BBX 20 20 2 -4
BITMAP
7FFFE0
C00030
800010
9FFF90
900090
900090
900090
900090
907090
90D090
909090
909090
9F9F90
800010
C00030
7F9FE0
009000
009000
00B000
00E000
ENDCHAR
STARTCHAR 0072
ENCODING 114
SWIDTH 538 0
DWIDTH 14 0
BBX 10 16 2 0
BITMAP
7F80
C0C0
8040
9FC0
9000
9000
9000
9000
9000
9000
9000
9000
9000
9000
B000
E000
ENDCHAR
STARTCHAR 0073
ENCODING 115
SWIDTH 923 0
DWIDTH 24 0
BBX 20 16 2 0
BITMAP
7FFFE0
C00030
800010
9FFFF0
900000
900000
9FFFE0
800030
C00010
7FFF90
000090
000090
FFFF90
800010
C00030
7FFFE0
ENDCHAR
STARTCHAR 0074
ENCODING 116
SWIDTH 538 0
DWIDTH 14 0
BBX 10 20 2 0
BITMAP
E000
B000
9000
9000
9FC0
8040
80C0
9F80
9000
9000
9000
9000
9000
9000
9000
9000
9FC0
8040
C0C0
7F80
ENDCHAR
STARTCHAR 0075
ENCODING 117
SWIDTH 923 0
DWIDTH 24 0
BBX 20 16 2 0
BITMAP
E00070
B000D0
900090
900090
900090
900090
900090
900090
900090
900090
900090
900090
9FFF90
800010
C00030
7FFFE0
ENDCHAR
STARTCHAR 0076
ENCODING 118
SWIDTH 923 0
DWIDTH 24 0
BBX 20 16 2 0
BITMAP
FE07F0
830C10
C10830
7909E0
090900
090900
090900
090900
090900
090900
090900
090900
09F900
080100
0C0300
07FE00
ENDCHAR
STARTCHAR 0077
ENCODING 119
SWIDTH 1076 0
DWIDTH 28 0
BBX 24 16 2 0
BITMAP
E03807
B02C0D
902409
902409
902409
902409
902409
902409
902409
902409
902409
902409
9FE7F9
800001
C00003
7FFFFE
ENDCHAR
STARTCHAR 0078
ENCODING 120
SWIDTH 923 0
DWIDTH 24 0
BBX 20 16 2 0
BITMAP
FE07F0
830C10
C10830
7909E0
090900
090900
090900
090900
79F9E0
C00030
800010
9FFF90
900090
900090
B000D0
E00070
ENDCHAR
STARTCHAR 0079
ENCODING 121
SWIDTH 923 0
DWIDTH 24 0
BBX 20 20 2 -4
BITMAP
E00070
B000D0
900090
900090
900090
900090
900090
900090
900090
900090
900090
900090
9FFF90
800010
C00010
7FFF90
000090
000090
0000D0
000070
ENDCHAR
STARTCHAR 007A
ENCODING 122
SWIDTH 923 0
DWIDTH 24 0
BBX 20 16 2 0
BITMAP
FFFFE0
800030
C00010
7FFF90
000090
000090
7FFF90
C00010
800030
9FFFE0
900000
900000
9FFFE0
800030
C00010
7FFFF0
ENDCHAR
STARTCHAR 007B
ENCODING 123
SWIDTH 576 0
DWIDTH 15 0
BBX 9 24 3 -4
BITMAP
3F80
2080
5F80
5F00
5800
5800
5800
5800
5800
5800
5800
8800
9800
5800
5800
5800
5800
5800
5800
5800
5F00
5F80
6080
3F80
ENDCHAR
STARTCHAR 007C
ENCODING 124
SWIDTH 307 0
DWIDTH 8 0
BBX 4 26 2 -4
BITMAP
E0
B0
90
90
90
90
90
90
90
90
90
90
90
90
90
90
90
90
90
90
90
90
90
90
D0
70
ENDCHAR
STARTCHAR 007D
ENCODING 125
SWIDTH 576 0
DWIDTH 15 0
BBX 9 24 2 -4
BITMAP
FE00
8300
C100
7900
0900
0900
0900
0900
0900
0900
0900
0880
0880
0900
0900
0900
0900
0900
0900
0900
7900
C100
8300
FE00
ENDCHAR
STARTCHAR 007E
ENCODING 126
SWIDTH 538 0
DWIDTH 14 0
BBX 0 0 0 0
BITMAP
ENDCHAR
STARTCHAR 00A1
ENCODING 161
SWIDTH 538 0
DWIDTH 14 0
BBX 0 0 0 0
BITMAP
ENDCHAR
STARTCHAR 00A2
ENCODING 162
SWIDTH 923 0
DWIDTH 24 0
BBX 20 24 2 -4
BITMAP
001C00
003400
002400
002400
7FE7E0
C00030
800010
9FE7F0
902400
902400
902400
902400
902400
902400
902400
902400
9FE7F0
800010
C00030
7FE7E0
002400
002400
002C00
003800
ENDCHAR
STARTCHAR 00A3
ENCODING 163
SWIDTH 923 0
DWIDTH 24 0
BBX 20 16 2 0
BITMAP
07FC00
0C0200
080100
09FF00
090000
090000
09F000
081000
082000
09E000
090000
090000
79FFF0
C00010
800020
FFFFE0
ENDCHAR
STARTCHAR 00A4
ENCODING 164
SWIDTH 538 0
DWIDTH 14 0
BBX 0 0 0 0
BITMAP
ENDCHAR
STARTCHAR 00A5
ENCODING 165
SWIDTH 538 0
DWIDTH 14 0
BBX 0 0 0 0
BITMAP
ENDCHAR
STARTCHAR 00A6
ENCODING 166
SWIDTH 538 0
DWIDTH 14 0
BBX 0 0 0 0
BITMAP
ENDCHAR
STARTCHAR 00A7
ENCODING 167
SWIDTH 538 0
DWIDTH 14 0
BBX 0 0 0 0
BITMAP
ENDCHAR
STARTCHAR 00A8
ENCODING 168
SWIDTH 538 0
DWIDTH 14 0
BBX 0 0 0 0
BITMAP
ENDCHAR
STARTCHAR 00A9
ENCODING 169
SWIDTH 538 0
DWIDTH 14 0
BBX 0 0 0 0
BITMAP
ENDCHAR
STARTCHAR 00AA
ENCODING 170
SWIDTH 538 0
DWIDTH 14 0
BBX 0 0 0 0
BITMAP
ENDCHAR
STARTCHAR 00AB
ENCODING 171
SWIDTH 538 0
DWIDTH 14 0
BBX 0 0 0 0
BITMAP
ENDCHAR
STARTCHAR 00AC
ENCODING 172
SWIDTH 538 0
DWIDTH 14 0
BBX 0 0 0 0
BITMAP
ENDCHAR
STARTCHAR 00AE
ENCODING 174
SWIDTH 538 0
DWIDTH 14 0
BBX 0 0 0 0
BITMAP
ENDCHAR
STARTCHAR 00AF
ENCODING 175
SWIDTH 538 0
DWIDTH 14 0
BBX 0 0 0 0
BITMAP
ENDCHAR
STARTCHAR 00B0
ENCODING 176
SWIDTH 538 0
DWIDTH 14 0
BBX 0 0 0 0
BITMAP
ENDCHAR
STARTCHAR 00B1
ENCODING 177
SWIDTH 538 0
DWIDTH 14 0
BBX 0 0 0 0
BITMAP
ENDCHAR
STARTCHAR 00B2
ENCODING 178
SWIDTH 538 0
DWIDTH 14 0
BBX 0 0 0 0
BITMAP
ENDCHAR
STARTCHAR 00B3
ENCODING 179
SWIDTH 538 0
DWIDTH 14 0
BBX 0 0 0 0
BITMAP
ENDCHAR
STARTCHAR 00B4
ENCODING 180
SWIDTH 538 0
DWIDTH 14 0
BBX 0 0 0 0
BITMAP
ENDCHAR
STARTCHAR 00B5
ENCODING 181
SWIDTH 538 0
DWIDTH 14 0
BBX 0 0 0 0
BITMAP
ENDCHAR
STARTCHAR 00B6
ENCODING 182
SWIDTH 538 0
DWIDTH 14 0
BBX 0 0 0 0
BITMAP
ENDCHAR
STARTCHAR 00B7
ENCODING 183
SWIDTH 538 0
DWIDTH 14 0
BBX 0 0 0 0
BITMAP
ENDCHAR
STARTCHAR 00B8
ENCODING 184
SWIDTH 538 0
DWIDTH 14 0
BBX 0 0 0 0
BITMAP
ENDCHAR
STARTCHAR 00B9
ENCODING 185
SWIDTH 538 0
DWIDTH 14 0
BBX 0 0 0 0
BITMAP
ENDCHAR
STARTCHAR 00BA
ENCODING 186
SWIDTH 538 0
DWIDTH 14 0
BBX 0 0 0 0
BITMAP
ENDCHAR
STARTCHAR 00BB
ENCODING 187
SWIDTH 538 0
DWIDTH 14 0
BBX 0 0 0 0
BITMAP
ENDCHAR
STARTCHAR 00BC
ENCODING 188
SWIDTH 538 0
DWIDTH 14 0
BBX 0 0 0 0
BITMAP
ENDCHAR
STARTCHAR 00BD
ENCODING 189
SWIDTH 538 0
DWIDTH 14 0
BBX 0 0 0 0
BITMAP
ENDCHAR
STARTCHAR 00BE
ENCODING 190
SWIDTH 538 0
DWIDTH 14 0
BBX 0 0 0 0
BITMAP
ENDCHAR
STARTCHAR 00BF
ENCODING 191
SWIDTH 923 0
DWIDTH 24 0
BBX 20 16 2 0
BITMAP
000F00
000900
000900
000F00
000000
000000
7FFF00
C00100
800300
9FFE00
900000
900000
9FFFE0
800030
C00010
7FFFF0
ENDCHAR
STARTCHAR 00C0
ENCODING 192
SWIDTH 923 0
DWIDTH 24 0
BBX 20 22 2 0
BITMAP
00F000
009000
009000
009000
009000
005000
7FFFE0
C00030
800010
9FFF90
900090
900090
900090
900090
9FFF90
800010
800010
9FFF90
900090
900090
B000D0
E00070
ENDCHAR
STARTCHAR 00C1
ENCODING 193
SWIDTH 923 0
DWIDTH 24 0
BBX 20 22 2 0
BITMAP
00F000
009000
009000
009000
009000
00A000
7FFFE0
C00030
800010
9FFF90
900090
900090
900090
900090
9FFF90
800010
800010
9FFF90
900090
900090
B000D0
E00070
ENDCHAR
STARTCHAR 00C2
ENCODING 194
SWIDTH 923 0
DWIDTH 24 0
BBX 20 16 2 0
BITMAP
7FFFE0
C00030
800010
9FFF90
900090
900090
900090
900090
9FFF90
800010
800010
9FFF90
900090
900090
B000D0
E00070
ENDCHAR
STARTCHAR 00C3
ENCODING 195
SWIDTH 923 0
DWIDTH 24 0
BBX 20 16 2 0
BITMAP
7FFFE0
C00030
800010
9FFF90
900090
900090
900090
900090
9FFF90
800010
800010
9FFF90
900090
900090
B000D0
E00070
ENDCHAR
STARTCHAR 00C4
ENCODING 196
SWIDTH 923 0
DWIDTH 24 0
BBX 20 22 2 0
BITMAP
F000F0
900090
900090
F000F0
000000
000000
7FFFE0
C00030
800010
9FFF90
900090
900090
900090
900090
9FFF90
800010
800010
9FFF90
900090
900090
B000D0
E00070
ENDCHAR
STARTCHAR 00C5
ENCODING 197
SWIDTH 923 0
DWIDTH 24 0
BBX 20 22 2 0
BITMAP
00F000
009000
009000
00F000
000000
000000
7FFFE0
C00030
800010
9FFF90
900090
900090
900090
900090
9FFF90
800010
800010
9FFF90
900090
900090
B000D0
E00070
ENDCHAR
STARTCHAR 00C6
ENCODING 198
SWIDTH 1076 0
DWIDTH 28 0
BBX 24 16 2 0
BITMAP
7FFFFE
C00003
800001
9FE7FF
902400
902400
9027FF
902001
9FE003
8007FE
800400
9FE400
9027FF
902001
B03003
E01FFE
ENDCHAR
STARTCHAR 00C7
ENCODING 199
SWIDTH 923 0
DWIDTH 24 0
BBX 20 20 2 -4
BITMAP
7FFFE0
C00030
800010
9FFFF0
900000
900000
900000
900000
900000
900000
9FFFF0
800010
C00030
7FE7E0
002400
002400
01E400
030400
020C00
03F800
ENDCHAR
STARTCHAR 00C8
ENCODING 200
SWIDTH 923 0
DWIDTH 24 0
BBX 20 22 2 0
BITMAP
00F000
009000
009000
009000
009000
005000
7FFFE0
C00030
800010
9FFFF0
900000
900000
9FFFF0
800010
800030
9FFFE0
900000
900000
9FFFF0
800010
C00030
7FFFE0
ENDCHAR
STARTCHAR 00C9
ENCODING 201
SWIDTH 923 0
DWIDTH 24 0
BBX 20 22 2 0
BITMAP
00F000
009000
009000
009000
009000
00A000
7FFFE0
C00030
800010
9FFFF0
900000
900000
9FFFF0
800010
800030
9FFFE0
900000
900000
9FFFF0
800010
C00030
7FFFE0
ENDCHAR
STARTCHAR 00CA
ENCODING 202
SWIDTH 923 0
DWIDTH 24 0
BBX 20 16 2 0
BITMAP
7FFFE0
C00030
800010
9FFFF0
900000
900000
9FFFF0
800010
800030
9FFFE0
900000
900000
9FFFF0
800010
C00030
7FFFE0
ENDCHAR
STARTCHAR 00CB
ENCODING 203
SWIDTH 923 0
DWIDTH 24 0
BBX 20 22 2 0
BITMAP
F000F0
900090
900090
F000F0
000000
000000
7FFFE0
C00030
800010
9FFFF0
900000
900000
9FFFF0
800010
800030
9FFFE0
900000
900000
9FFFF0
800010
C00030
7FFFE0
ENDCHAR
STARTCHAR 00CC
ENCODING 204
SWIDTH 307 0
DWIDTH 8 0
BBX 4 22 2 0
BITMAP
F0
90
90
90
D0
70
E0
B0
90
90
90
90
90
90
90
90
90
90
90
90
D0
70
ENDCHAR
STARTCHAR 00CD
ENCODING 205
SWIDTH 307 0
DWIDTH 8 0
BBX 4 22 2 0
BITMAP
F0
90
90
90
B0
E0
70
D0
90
90
90
90
90
90
90
90
90
90
90
90
B0
E0
ENDCHAR
STARTCHAR 00CE
ENCODING 206
SWIDTH 307 0
DWIDTH 8 0
BBX 4 16 2 0
BITMAP
E0
B0
90
90
90
90
90
90
90
90
90
90
90
90
D0
70
ENDCHAR
STARTCHAR 00CF
ENCODING 207
SWIDTH 615 0
DWIDTH 16 0
BBX 12 22 2 0
BITMAP
F0F0
9090
9090
F0F0
0000
0000
0E00
0B00
0900
0900
0900
0900
0900
0900
0900
0900
0900
0900
0900
0900
0D00
0700
ENDCHAR
STARTCHAR 00D0
ENCODING 208
SWIDTH 923 0
DWIDTH 24 0
BBX 20 20 2 0
BITMAP
000070
0000D0
000090
000090
7FFF90
C00010
800010
9FFF90
900090
900090
900090
900090
900090
900090
900090
900090
9FFF90
800010
C00030
7FFFE0
ENDCHAR
STARTCHAR 00D1
ENCODING 209
SWIDTH 923 0
DWIDTH 24 0
BBX 20 16 2 0
BITMAP
7FFFE0
C00030
800010
9FFF90
900090
900090
900090
900090
900090
900090
900090
900090
900090
900090
B000D0
E00070
ENDCHAR
STARTCHAR 00D2
ENCODING 210
SWIDTH 923 0
DWIDTH 24 0
BBX 20 22 2 0
BITMAP
00F000
009000
009000
009000
009000
005000
7FFFE0
C00030
800010
9FFF90
900090
900090
900090
900090
900090
900090
900090
900090
9FFF90
800010
C00030
7FFFE0
ENDCHAR
STARTCHAR 00D3
ENCODING 211
SWIDTH 923 0
DWIDTH 24 0
BBX 20 22 2 0
BITMAP
00F000
009000
009000
009000
009000
00A000
7FFFE0
C00030
800010
9FFF90
900090
900090
900090
900090
900090
900090
900090
900090
9FFF90
800010
C00030
7FFFE0
ENDCHAR
STARTCHAR 00D4
ENCODING 212
SWIDTH 923 0
DWIDTH 24 0
BBX 20 16 2 0
BITMAP
7FFFE0
C00030
800010
9FFF90
900090
900090
900090
900090
900090
900090
900090
900090
9FFF90
800010
C00030
7FFFE0
ENDCHAR
STARTCHAR 00D5
ENCODING 213
SWIDTH 923 0
DWIDTH 24 0
BBX 20 16 2 0
BITMAP
7FFFE0
C00030
800010
9FFF90
900090
900090
900090
900090
900090
900090
900090
900090
9FFF90
800010
C00030
7FFFE0
ENDCHAR
STARTCHAR 00D6
ENCODING 214
SWIDTH 923 0
DWIDTH 24 0
BBX 20 22 2 0
BITMAP
F000F0
900090
900090
F000F0
000000
000000
7FFFE0
C00030
800010
9FFF90
900090
900090
900090
900090
900090
900090
900090
900090
9FFF90
800010
C00030
7FFFE0
ENDCHAR
STARTCHAR 00D7
ENCODING 215
SWIDTH 538 0
DWIDTH 14 0
BBX 0 0 0 0
BITMAP
ENDCHAR
STARTCHAR 00D8
ENCODING 216
SWIDTH 923 0
DWIDTH 24 0
BBX 20 16 2 0
BITMAP
7FFFE0
C00030
800010
9FFF90
900090
900090
900090
900090
900090
900090
900090
900090
9FFF90
800010
C00030
7FFFE0
ENDCHAR
STARTCHAR 00D9
ENCODING 217
SWIDTH 923 0
DWIDTH 24 0
BBX 20 22 2 0
BITMAP
00F000
009000
009000
009000
00D000
007000
E00070
B000D0
900090
900090
900090
900090
900090
900090
900090
900090
900090
900090
9FFF90
800010
C00030
7FFFE0
ENDCHAR
STARTCHAR 00DA
ENCODING 218
SWIDTH 923 0
DWIDTH 24 0
BBX 20 22 2 0
BITMAP
00F000
009000
009000
009000
00B000
00E000
E00070
B000D0
900090
900090
900090
900090
900090
900090
900090
900090
900090
900090
9FFF90
800010
C00030
7FFFE0
ENDCHAR
STARTCHAR 00DB
ENCODING 219
SWIDTH 923 0
DWIDTH 24 0
BBX 20 16 2 0
BITMAP
E00070
B000D0
900090
900090
900090
900090
900090
900090
900090
900090
900090
900090
9FFF90
800010
C00030
7FFFE0
ENDCHAR
STARTCHAR 00DC
ENCODING 220
SWIDTH 923 0
DWIDTH 24 0
BBX 20 22 2 0
BITMAP
F000F0
900090
900090
F000F0
000000
000000
E00070
B000D0
900090
900090
900090
900090
900090
900090
900090
900090
900090
900090
9FFF90
800010
C00030
7FFFE0
ENDCHAR
STARTCHAR 00DD
ENCODING 221
SWIDTH 923 0
DWIDTH 24 0
BBX 20 26 2 -4
BITMAP
00F000
009000
009000
009000
00B000
00E000
E00070
B000D0
900090
900090
900090
900090
900090
900090
900090
900090
900090
900090
9FFF90
800010
C00010
7FFF90
000090
000090
0000D0
000070
ENDCHAR
STARTCHAR 00DE
ENCODING 222
SWIDTH 538 0
DWIDTH 14 0
BBX 0 0 0 0
BITMAP
ENDCHAR
STARTCHAR 00DF
ENCODING 223
SWIDTH 538 0
DWIDTH 14 0
BBX 0 0 0 0
BITMAP
ENDCHAR
STARTCHAR 00E0
ENCODING 224
SWIDTH 923 0
DWIDTH 24 0
BBX 20 22 2 0
BITMAP
00F000
009000
009000
009000
009000
005000
7FFFF0
C00010
800010
9FFF90
900090
900090
900090
900090
900090
900090
900090
900090
9FFF90
800010
C00010
7FFFF0
ENDCHAR
STARTCHAR 00E1
ENCODING 225
SWIDTH 923 0
DWIDTH 24 0
BBX 20 22 2 0
BITMAP
00F000
009000
009000
009000
009000
00A000
7FFFF0
C00010
800010
9FFF90
900090
900090
900090
900090
900090
900090
900090
900090
9FFF90
800010
C00010
7FFFF0
ENDCHAR
STARTCHAR 00E2
ENCODING 226
SWIDTH 923 0
DWIDTH 24 0
BBX 20 16 2 0
BITMAP
7FFFF0
C00010
800010
9FFF90
900090
900090
900090
900090
900090
900090
900090
900090
9FFF90
800010
C00010
7FFFF0
ENDCHAR
STARTCHAR 00E3
ENCODING 227
SWIDTH 923 0
DWIDTH 24 0
BBX 20 16 2 0
BITMAP
7FFFF0
C00010
800010
9FFF90
900090
900090
900090
900090
900090
900090
900090
900090
9FFF90
800010
C00010
7FFFF0
ENDCHAR
STARTCHAR 00E4
ENCODING 228
SWIDTH 923 0
DWIDTH 24 0
BBX 20 22 2 0
BITMAP
F000F0
900090
900090
F000F0
000000
000000
7FFFF0
C00010
800010
9FFF90
900090
900090
900090
900090
900090
900090
900090
900090
9FFF90
800010
C00010
7FFFF0
ENDCHAR
STARTCHAR 00E5
ENCODING 229
SWIDTH 923 0
DWIDTH 24 0
BBX 20 22 2 0
BITMAP
00F000
009000
009000
00F000
000000
000000
7FFFF0
C00010
800010
9FFF90
900090
900090
900090
900090
900090
900090
900090
900090
9FFF90
800010
C00010
7FFFF0
ENDCHAR
STARTCHAR 00E6
ENCODING 230
SWIDTH 1076 0
DWIDTH 28 0
BBX 24 16 2 0
BITMAP
7FFFFE
C00003
800001
9FE7F9
902409
902409
9027F9
902001
902001
9027FF
902400
902400
9FE7FF
800001
C00003
7FFFFE
ENDCHAR
STARTCHAR 00E7
ENCODING 231
SWIDTH 923 0
DWIDTH 24 0
BBX 20 20 2 -4
BITMAP
7FFFE0
C00030
800010
9FFFF0
900000
900000
900000
900000
900000
900000
9FFFF0
800010
C00030
7FE7E0
002400
002400
01E400
030400
020C00
03F800
ENDCHAR
STARTCHAR 00E8
ENCODING 232
SWIDTH 923 0
DWIDTH 24 0
BBX 20 22 2 0
BITMAP
00F000
009000
009000
009000
00D000
007000
7FFFE0
C00030
800010
9FFF90
900090
900090
9FFF90
800010
800010
9FFFF0
900000
900000
9FFFF0
800010
C00030
7FFFE0
ENDCHAR
STARTCHAR 00E9
ENCODING 233
SWIDTH 923 0
DWIDTH 24 0
BBX 20 22 2 0
BITMAP
00F000
009000
009000
009000
00B000
00E000
7FFFE0
C00030
800010
9FFF90
900090
900090
9FFF90
800010
800010
9FFFF0
900000
900000
9FFFF0
800010
C00030
7FFFE0
ENDCHAR
STARTCHAR 00EA
ENCODING 234
SWIDTH 923 0
DWIDTH 24 0
BBX 20 16 2 0
BITMAP
7FFFE0
C00030
800010
9FFF90
900090
900090
9FFF90
800010
800010
9FFFF0
900000
900000
9FFFF0
800010
C00030
7FFFE0
ENDCHAR
STARTCHAR 00EB
ENCODING 235
SWIDTH 923 0
DWIDTH 24 0
BBX 20 22 2 0
BITMAP
F000F0
900090
900090
F000F0
000000
000000
7FFFE0
C00030
800010
9FFF90
900090
900090
9FFF90
800010
800010
9FFFF0
900000
900000
9FFFF0
800010
C00030
7FFFE0
ENDCHAR
STARTCHAR 00EC
ENCODING 236
SWIDTH 307 0
DWIDTH 8 0
BBX 4 22 2 0
BITMAP
F0
90
90
90
D0
70
E0
B0
90
90
90
90
90
90
90
90
90
90
90
90
D0
70
ENDCHAR
STARTCHAR 00ED
ENCODING 237
SWIDTH 307 0
DWIDTH 8 0
BBX 4 22 2 0
BITMAP
F0
90
90
90
B0
E0
70
D0
90
90
90
90
90
90
90
90
90
90
90
90
B0
E0
ENDCHAR
STARTCHAR 00EE
ENCODING 238
SWIDTH 307 0
DWIDTH 8 0
BBX 4 16 2 0
BITMAP
E0
B0
90
90
90
90
90
90
90
90
90
90
90
90
D0
70
ENDCHAR
STARTCHAR 00EF
ENCODING 239
SWIDTH 615 0
DWIDTH 16 0
BBX 12 22 2 0
BITMAP
F0F0
9090
9090
F0F0
0000
0000
0E00
0B00
0900
0900
0900
0900
0900
0900
0900
0900
0900
0900
0900
0900
0D00
0700
ENDCHAR
STARTCHAR 00F0
ENCODING 240
SWIDTH 538 0
DWIDTH 14 0
BBX 0 0 0 0
BITMAP
ENDCHAR
STARTCHAR 00F1
ENCODING 241
SWIDTH 923 0
DWIDTH 24 0
BBX 20 16 2 0
BITMAP
7FFFE0
C00030
800010
9FFF90
900090
900090
900090
900090
900090
900090
900090
900090
900090
900090
B000D0
E00070
ENDCHAR
STARTCHAR 00F2
ENCODING 242
SWIDTH 923 0
DWIDTH 24 0
BBX 20 22 2 0
BITMAP
00F000
009000
009000
009000
009000
005000
7FFFE0
C00030
800010
9FFF90
900090
900090
900090
900090
900090
900090
900090
900090
9FFF90
800010
C00030
7FFFE0
ENDCHAR
STARTCHAR 00F3
ENCODING 243
SWIDTH 923 0
DWIDTH 24 0
BBX 20 22 2 0
BITMAP
00F000
009000
009000
009000
009000
00A000
7FFFE0
C00030
800010
9FFF90
900090
900090
900090
900090
900090
900090
900090
900090
9FFF90
800010
C00030
7FFFE0
ENDCHAR
STARTCHAR 00F4
ENCODING 244
SWIDTH 923 0
DWIDTH 24 0
BBX 20 16 2 0
BITMAP
7FFFE0
C00030
800010
9FFF90
900090
900090
900090
900090
900090
900090
900090
900090
9FFF90
800010
C00030
7FFFE0
ENDCHAR
STARTCHAR 00F5
ENCODING 245
SWIDTH 923 0
DWIDTH 24 0
BBX 20 16 2 0
BITMAP
7FFFE0
C00030
800010
9FFF90
900090
900090
900090
900090
900090
900090
900090
900090
9FFF90
800010
C00030
7FFFE0
ENDCHAR
STARTCHAR 00F6
ENCODING 246
SWIDTH 923 0
DWIDTH 24 0
BBX 20 22 2 0
BITMAP
F000F0
900090
900090
F000F0
000000
000000
7FFFE0
C00030
800010
9FFF90
900090
900090
900090
900090
900090
900090
900090
900090
9FFF90
800010
C00030
7FFFE0
ENDCHAR
STARTCHAR 00F7
ENCODING 247
SWIDTH 538 0
DWIDTH 14 0
BBX 0 0 0 0
BITMAP
ENDCHAR
STARTCHAR 00F8
ENCODING 248
SWIDTH 923 0
DWIDTH 24 0
BBX 20 16 2 0
BITMAP
7FFFE0
C00030
800010
9FFF90
900090
900090
900090
900090
900090
900090
900090
900090
9FFF90
800010
C00030
7FFFE0
ENDCHAR
STARTCHAR 00F9
ENCODING 249
SWIDTH 923 0
DWIDTH 24 0
BBX 20 22 2 0
BITMAP
00F000
009000
009000
009000
00D000
007000
E00070
B000D0
900090
900090
900090
900090
900090
900090
900090
900090
900090
900090
9FFF90
800010
C00030
7FFFE0
ENDCHAR
STARTCHAR 00FA
ENCODING 250
SWIDTH 923 0
DWIDTH 24 0
BBX 20 22 2 0
BITMAP
00F000
009000
009000
009000
00B000
00E000
E00070
B000D0
900090
900090
900090
900090
900090
900090
900090
900090
900090
900090
9FFF90
800010
C00030
7FFFE0
ENDCHAR
STARTCHAR 00FB
ENCODING 251
SWIDTH 923 0
DWIDTH 24 0
BBX 20 16 2 0
BITMAP
E00070
B000D0
900090
900090
900090
900090
900090
900090
900090
900090
900090
900090
9FFF90
800010
C00030
7FFFE0
ENDCHAR
STARTCHAR 00FC
ENCODING 252
SWIDTH 923 0
DWIDTH 24 0
BBX 20 22 2 0
BITMAP
F000F0
900090
900090
F000F0
000000
000000
E00070
B000D0
900090
900090
900090
900090
900090
900090
900090
900090
900090
900090
9FFF90
800010
C00030
7FFFE0
ENDCHAR
STARTCHAR 00FD
ENCODING 253
SWIDTH 923 0
DWIDTH 24 0
BBX 20 26 2 -4
BITMAP
00F000
009000
009000
009000
00B000
00E000
E00070
B000D0
900090
900090
900090
900090
900090
900090
900090
900090
900090
900090
9FFF90
800010
C00010
7FFF90
000090
000090
0000D0
000070
ENDCHAR
STARTCHAR 00FE
ENCODING 254
SWIDTH 538 0
DWIDTH 14 0
BBX 0 0 0 0
BITMAP
ENDCHAR
STARTCHAR 00FF
ENCODING 255
SWIDTH 923 0
DWIDTH 24 0
BBX 20 26 2 -4
BITMAP
F000F0
900090
900090
F000F0
000000
000000
E00070
B000D0
900090
900090
900090
900090
900090
900090
900090
900090
900090
900090
9FFF90
800010
C00010
7FFF90
000090
000090
0000D0
000070
ENDCHAR
STARTCHAR 02C9
ENCODING 713
SWIDTH 538 0
DWIDTH 14 0
BBX 0 0 0 0
BITMAP
ENDCHAR
STARTCHAR 03BC
ENCODING 956
SWIDTH 538 0
DWIDTH 14 0
BBX 0 0 0 0
BITMAP
ENDCHAR
STARTCHAR 2010
ENCODING 8208
SWIDTH 769 0
DWIDTH 20 0
BBX 16 4 2 6
BITMAP
7FFF
C001
8003
FFFE
ENDCHAR
STARTCHAR 2219
ENCODING 8729
SWIDTH 538 0
DWIDTH 14 0
BBX 0 0 0 0
BITMAP
ENDCHAR
ENDFONT
